<svg width="4147" height="1309" xmlns="http://www.w3.org/2000/svg" xmlns:xlink="http://www.w3.org/1999/xlink" xml:space="preserve" overflow="hidden"><defs><clipPath id="clip0"><rect x="121" y="68" width="4147" height="1309"/></clipPath></defs><g clip-path="url(#clip0)" transform="translate(-121 -68)"><path d="M121 98.6309C121 81.714 134.714 68.0001 151.631 68.0001L4237.37 68.0001C4254.29 68.0001 4268 81.714 4268 98.6309L4268 1346.37C4268 1363.29 4254.29 1377 4237.37 1377L151.631 1377C134.714 1377 121 1363.29 121 1346.37Z" fill="#FFFFFF" fill-rule="evenodd"/><path d="M221.5 352.238C221.5 325.873 242.873 304.5 269.238 304.5L4137.76 304.5C4164.13 304.5 4185.5 325.873 4185.5 352.238L4185.5 1261.76C4185.5 1288.13 4164.13 1309.5 4137.76 1309.5L269.238 1309.5C242.873 1309.5 221.5 1288.13 221.5 1261.76Z" stroke="#000000" stroke-width="4.58333" stroke-miterlimit="8" fill="none" fill-rule="evenodd"/><path d="M221 171.169C221 161.134 229.134 153 239.168 153L4166.83 153C4176.87 153 4185 161.134 4185 171.169L4185 243.831C4185 253.865 4176.87 262 4166.83 262L239.168 262C229.134 262 221 253.865 221 243.831Z" fill="#CEFBA4" fill-rule="evenodd"/><text font-family="Pretendard,Pretendard_MSFontService,sans-serif" font-weight="700" font-size="55" transform="matrix(1 0 0 1 258.881 228)">엔진서비스</text><text font-family="Pretendard,Pretendard_MSFontService,sans-serif" font-weight="700" font-size="55" transform="matrix(1 0 0 1 509.246 228)">거래</text><text font-family="Pretendard,Pretendard_MSFontService,sans-serif" font-weight="700" font-size="55" transform="matrix(1 0 0 1 616.954 228)">구조</text><text font-family="Pretendard,Pretendard_MSFontService,sans-serif" font-weight="400" font-size="55" transform="matrix(1 0 0 1 1807.31 1028)">④</text><text font-family="Pretendard,Pretendard_MSFontService,sans-serif" font-weight="400" font-size="55" transform="matrix(1 0 0 1 1869.19 1028)">상품배송</text><path d="M2751 667.5C2751 650.103 2765.1 636 2782.5 636L3241.5 636C3258.9 636 3273 650.103 3273 667.5L3273 793.5C3273 810.897 3258.9 825 3241.5 825L2782.5 825C2765.1 825 2751 810.897 2751 793.5Z" fill="#333333" fill-rule="evenodd"/><text fill="#FFFFFF" font-family="Pretendard,Pretendard_MSFontService,sans-serif" font-weight="700" font-size="55" transform="matrix(1 0 0 1 2940.71 751)">고객사</text><path d="M594 667.5C594 650.103 608.103 636 625.5 636L1083.5 636C1100.9 636 1115 650.103 1115 667.5L1115 793.5C1115 810.897 1100.9 825 1083.5 825L625.5 825C608.103 825 594 810.897 594 793.5Z" fill="#BFBFBF" fill-rule="evenodd"/><text font-family="Pretendard,Pretendard_MSFontService,sans-serif" font-weight="700" font-size="55" transform="matrix(1 0 0 1 783.335 718)">공급사</text><text font-family="Pretendard,Pretendard_MSFontService,sans-serif" font-weight="400" font-size="55" transform="matrix(1 0 0 1 740.664 784)">(</text><text font-family="Pretendard,Pretendard_MSFontService,sans-serif" font-weight="400" font-size="55" transform="matrix(1 0 0 1 759.57 784)">자산제공</text><text font-family="Pretendard,Pretendard_MSFontService,sans-serif" font-weight="400" font-size="55" transform="matrix(1 0 0 1 949.778 784)">)</text><path d="M1673 667.5C1673 650.103 1687.1 636 1704.5 636L2162.5 636C2179.9 636 2194 650.103 2194 667.5L2194 793.5C2194 810.897 2179.9 825 2162.5 825L1704.5 825C1687.1 825 1673 810.897 1673 793.5Z" fill="#76CD53" fill-rule="evenodd"/><text fill="#FFFFFF" font-family="Pretendard,Pretendard_MSFontService,sans-serif" font-weight="700" font-size="55" transform="matrix(1 0 0 1 1754.32 751)">고위드</text><text fill="#FFFFFF" font-family="Pretendard,Pretendard_MSFontService,sans-serif" font-weight="700" font-size="55" transform="matrix(1 0 0 1 1909.58 751)">및</text><text fill="#FFFFFF" font-family="Pretendard,Pretendard_MSFontService,sans-serif" font-weight="700" font-size="55" transform="matrix(1 0 0 1 1969.73 751)">렌탈사</text><path d="M1115 729.854 1649.62 729.855 1649.62 732.146 1115 732.146ZM1645.04 717.251 1672.54 731.001 1645.04 744.751Z"/><path d="M2194 729.854 2728.62 729.855 2728.62 732.146 2194 732.146ZM2724.04 717.251 2751.54 731.001 2724.04 744.751Z"/><path d="M0-1.14583 110.717-1.14583 110.717 953.746 26.7595 953.751 26.7594 951.46 109.571 951.455 108.425 952.601 108.425 0 109.571 1.14583 0 1.14583ZM31.357 966.351 3.84278 952.629 31.3285 938.851Z" fill="#396628" transform="matrix(-6.12323e-17 -1 -1 6.12323e-17 1815.63 645.843)"/><text font-family="Pretendard,Pretendard_MSFontService,sans-serif" font-weight="400" font-size="55" transform="matrix(1 0 0 1 1246.78 810)">③</text><text font-family="Pretendard,Pretendard_MSFontService,sans-serif" font-weight="400" font-size="55" transform="matrix(1 0 0 1 1308.65 810)">공급계약</text><text font-family="Pretendard,Pretendard_MSFontService,sans-serif" font-weight="400" font-size="55" transform="matrix(1 0 0 1 2346.65 810)">②</text><text font-family="Pretendard,Pretendard_MSFontService,sans-serif" font-weight="400" font-size="55" transform="matrix(1 0 0 1 2408.53 810)">렌탈계약</text><text font-family="Pretendard,Pretendard_MSFontService,sans-serif" font-weight="400" font-size="55" transform="matrix(1 0 0 1 2338.85 609)">⑥</text><text font-family="Pretendard,Pretendard_MSFontService,sans-serif" font-weight="400" font-size="55" transform="matrix(1 0 0 1 2400.73 609)">렌탈료납부</text><path d="M0-1.14583 139.551-1.14583 139.551 2158.51 30.6058 2158.51 30.6058 2156.21 138.405 2156.21 137.259 2157.36 137.259 0 138.405 1.14583 0 1.14583ZM35.1892 2171.11 7.68917 2157.36 35.1892 2143.61Z" transform="matrix(1.83697e-16 1 1 -1.83697e-16 859 822)"/><text font-family="Pretendard,Pretendard_MSFontService,sans-serif" font-weight="400" font-size="55" transform="matrix(1 0 0 1 1215.59 617)">⑤</text><text font-family="Pretendard,Pretendard_MSFontService,sans-serif" font-weight="400" font-size="55" transform="matrix(1 0 0 1 1277.46 617)">공급가</text><text font-family="Pretendard,Pretendard_MSFontService,sans-serif" font-weight="400" font-size="55" transform="matrix(1 0 0 1 1433.87 617)">정산</text><path d="M3448 599C3448 590.164 3455.16 583 3464 583L3795 583C3803.84 583 3811 590.164 3811 599L3811 663C3811 671.836 3803.84 679 3795 679L3464 679C3455.16 679 3448 671.836 3448 663Z" fill="#BFBFBF" fill-rule="evenodd"/><text font-family="Pretendard,Pretendard_MSFontService,sans-serif" font-weight="400" font-size="50" transform="matrix(1 0 0 1 3485.26 649)">최종수요자</text><path d="M0 0 87.4726 0 87.4726 99.9026 174.945 99.9026" stroke="#000000" stroke-width="2.29167" stroke-miterlimit="8" fill="none" fill-rule="evenodd" transform="matrix(1 0 0 -1 3273 730.903)"/><path d="M3448 730C3448 721.164 3455.16 714 3464 714L3795 714C3803.84 714 3811 721.164 3811 730L3811 793.999C3811 802.836 3803.84 810 3795 810L3464 810C3455.16 810 3448 802.836 3448 793.999Z" fill="#BFBFBF" fill-rule="evenodd"/><text font-family="Pretendard,Pretendard_MSFontService,sans-serif" font-weight="400" font-size="50" transform="matrix(1 0 0 1 3485.26 780)">최종수요자</text><path d="M3448 866.167C3448 857.238 3455.24 850 3464.17 850L3794.83 850C3803.76 850 3811 857.238 3811 866.167L3811 930.833C3811 939.762 3803.76 947 3794.83 947L3464.17 947C3455.24 947 3448 939.762 3448 930.833Z" fill="#BFBFBF" fill-rule="evenodd"/><text font-family="Pretendard,Pretendard_MSFontService,sans-serif" font-weight="400" font-size="50" transform="matrix(1 0 0 1 3485.26 916)">최종수요자</text><path d="M3273 731 3360.47 731 3360.47 761.947 3447.94 761.947" stroke="#000000" stroke-width="2.29167" stroke-miterlimit="8" fill="none" fill-rule="evenodd"/><path d="M3273 731 3360.47 731 3360.47 898.729 3447.94 898.729" stroke="#000000" stroke-width="2.29167" stroke-miterlimit="8" fill="none" fill-rule="evenodd"/><path d="M0-1.14583 110.717-1.14583 110.717 807.56 26.7595 807.564 26.7594 805.273 109.571 805.269 108.425 806.414 108.425 0 109.571 1.14583 0 1.14583ZM31.3549 820.164 3.84278 806.439 31.3307 792.664Z" fill="#396628" transform="matrix(-6.12323e-17 -1 -1 6.12323e-17 2891.44 645.843)"/></g></svg>